<svg xmlns="http://www.w3.org/2000/svg" viewBox="0 0 24 24" id="avatar"><path fill="#303c42" d="M24 11.5c0-1.607-.874-3.176-2.007-3.966.001-.012.007-.022.007-.034C22 3.314 17.861 1 15 1c-1.576 0-2.581.301-3 .459C11.581 1.301 10.576 1 9 1 6.139 1 2 3.314 2 7.5c0 .012.006.022.007.034C.874 8.324 0 9.893 0 11.5c0 1.169.312 2.016.62 2.586C.28 14.614 0 15.378 0 16.5c0 2.286 1.556 3.279 2.379 3.485a.5.5 0 0 0 .481-.138c.73 1.144 1.566 1.652 2.641 1.652.51 0 1.048-.137 1.577-.386C8.11 22.145 9.653 23 12 23s3.89-.855 4.923-1.886c.529.25 1.068.386 1.577.386 1.074 0 1.911-.509 2.641-1.652a.507.507 0 0 0 .481.138c.822-.207 2.378-1.2 2.378-3.486 0-1.122-.28-1.886-.62-2.414.308-.57.62-1.417.62-2.586z"></path><path fill="#fee8d7" d="M12 22c-4.144 0-5.362-3.029-5.883-4.323a7.402 7.402 0 0 0-.167-.394A.499.499 0 0 0 5.5 17C4.872 17 4 15.265 4 14.5c0-1.071.341-1.376.709-1.546A.5.5 0 0 0 5 12.5c0-3.649.766-5.94 2.214-6.626.884-.42 1.567-.563 2.122-.563.664 0 1.145.205 1.569.386.364.157.708.303 1.095.303.386 0 .73-.146 1.094-.302.778-.331 1.749-.746 3.696.18C18.236 6.564 19 8.854 19 12.5a.5.5 0 0 0 .291.454c.369.17.709.475.709 1.546 0 .765-.872 2.5-1.5 2.5a.502.502 0 0 0-.451.283 7.06 7.06 0 0 0-.167.394C17.362 18.971 16.144 22 12 22z"></path><path d="M19.291 12.954A.5.5 0 0 1 19 12.5c0-3.646-.764-5.937-2.21-6.622-.999-.475-1.739-.595-2.33-.556.488.011 1.078.151 1.843.556 1.299.686 1.986 2.976 1.986 6.622 0 .195.102.372.261.454.331.17.637.475.637 1.546 0 .765-.783 2.5-1.348 2.5-.173 0-.33.11-.405.283-.041.096-.09.229-.15.394C16.818 18.971 15.723 22 12 22c4.144 0 5.362-3.029 5.883-4.323.066-.164.121-.298.167-.394A.499.499 0 0 1 18.5 17c.628 0 1.5-1.735 1.5-2.5 0-1.071-.341-1.376-.709-1.546z" opacity=".1"></path><path fill="#fff" d="M6.715 17.677a7.025 7.025 0 0 0-.15-.394A.448.448 0 0 0 6.16 17c-.565 0-1.348-1.735-1.348-2.5 0-1.071.306-1.376.637-1.546a.507.507 0 0 0 .261-.454c0-3.649.688-5.94 1.989-6.626.726-.384 1.295-.529 1.769-.553-.046-.002-.086-.01-.133-.01-.555 0-1.237.143-2.122.563C5.766 6.56 5 8.851 5 12.5a.5.5 0 0 1-.291.454c-.368.17-.709.475-.709 1.546 0 .765.872 2.5 1.5 2.5.192 0 .367.11.451.283.046.096.101.229.167.394C6.638 18.971 7.856 22 12 22c-3.723 0-4.818-3.029-5.285-4.323z" opacity=".2"></path><path fill="#e6e6e6" d="M22 18.698V18a.501.501 0 0 0-.964-.185c-.946 2.366-1.813 2.686-2.536 2.686-.281 0-.582-.078-.887-.192.632-.863.986-1.731 1.198-2.258l.04-.098c1.262-.349 2.15-2.494 2.15-3.452 0-.726-.111-1.72-1.001-2.296-.044-3.943-.979-6.375-2.78-7.23-2.355-1.117-3.656-.563-4.517-.195-.28.117-.521.22-.703.22s-.423-.103-.703-.222c-.86-.368-2.161-.923-4.511.191-1.804.854-2.74 3.288-2.784 7.234C3.111 12.78 3 13.774 3 14.5c0 .958.888 3.104 2.15 3.452l.04.098c.212.527.565 1.395 1.198 2.258-.306.114-.607.192-.888.192-.723 0-1.589-.319-2.536-2.686A.501.501 0 0 0 2 18v.697c-.458-.333-1-.984-1-2.197 0-2.058 1.103-2.505 1.165-2.528a.5.5 0 0 0-.322-.946 2.31 2.31 0 0 0-.491.277A4.5 4.5 0 0 1 1 11.5C1 9.799 2.285 8 3.5 8a.5.5 0 0 0 0-1c-.159 0-.315.038-.472.072C3.314 3.542 7.051 2 9 2c1.833 0 2.77.444 2.776.447a.505.505 0 0 0 .444.001C12.23 2.444 13.167 2 15 2c1.949 0 5.686 1.542 5.972 5.072C20.815 7.038 20.659 7 20.5 7a.5.5 0 0 0 0 1c1.215 0 2.5 1.799 2.5 3.5a4.51 4.51 0 0 1-.351 1.802 2.31 2.31 0 0 0-.491-.277.494.494 0 0 0-.625.31.504.504 0 0 0 .302.637c.047.017 1.165.457 1.165 2.528 0 1.215-.542 1.866-1 2.198z"></path><path fill="#fff" d="M3.573 7.015c.595-3.156 4.047-4.546 5.896-4.546 1.833 0 2.77.444 2.776.447a.505.505 0 0 0 .444.001c.009-.004.947-.448 2.779-.448 1.156 0 2.938.548 4.259 1.726C18.391 2.691 16.3 2 15 2c-1.833 0-2.77.444-2.779.448a.505.505 0 0 1-.444-.001C11.77 2.444 10.833 2 9 2 7.051 2 3.314 3.542 3.028 7.072 3.185 7.038 3.341 7 3.5 7c.026 0 .048.011.073.015zm-1.961 6.123a4.74 4.74 0 0 1-.143-1.169c0-1.701 1.285-3.5 2.5-3.5a.497.497 0 0 0 .026-.995c0 .009.005.017.005.026a.5.5 0 0 1-.5.5C2.285 8 1 9.799 1 11.5c0 .768.161 1.358.351 1.802.099-.07.185-.122.261-.164zm-.143 3.831c0-2.058 1.103-2.505 1.165-2.528a.5.5 0 0 0-.142-.969.492.492 0 0 1-.326.5C2.103 13.995 1 14.442 1 16.5c0 1.213.542 1.864 1 2.197v-.013c-.291-.381-.531-.918-.531-1.715z" opacity=".2"></path><circle cx="8.5" cy="13" r="1" fill="#303c42"></circle><circle cx="15.5" cy="13" r="1" fill="#303c42"></circle><path fill="#303c42" d="M13 16c-.46 0-.779.092-1 .221-.221-.129-.54-.221-1-.221-1.173 0-2.236 1.029-2.354 1.146A.499.499 0 0 0 9 18h1v1c0 1.103.897 2 2 2s2-.897 2-2v-1h1a.5.5 0 0 0 .354-.854C15.236 17.029 14.173 16 13 16z"></path><path fill="#d32f2f" d="M13 19a1.001 1.001 0 0 1-2 0v-1h2v1z"></path><path fill="#303c42" d="M9.5 10.5A.5.5 0 0 0 9 10c-1.173 0-2.236 1.029-2.354 1.146a.5.5 0 1 0 .707.707C7.592 11.616 8.355 11 9 11a.5.5 0 0 0 .5-.5zM15 10a.5.5 0 0 0 0 1c.645 0 1.408.616 1.647.854a.499.499 0 0 0 .707-.707C17.236 11.029 16.173 10 15 10z"></path><linearGradient id="a" x1="10.309" x2="15.416" y1="7.903" y2="2.796" gradientTransform="matrix(1 0 0 -1 0 24)" gradientUnits="userSpaceOnUse"><stop offset="0" stop-opacity=".1"></stop><stop offset="1" stop-opacity="0"></stop></linearGradient><path fill="url(#a)" d="M10 18H9a.483.483 0 0 1-.372-.2l-.025.003 1.42 1.42C10.014 19.149 10 19.076 10 19v-1zm5.354-.854A.499.499 0 0 1 15 18h-1v1c0 1.103-.897 2-2 2-.43 0-.825-.139-1.152-.37v.003l1.776 1.338c2.585-.205 3.9-1.662 4.621-2.932l-1.891-1.893z"></path><linearGradient id="b" x1="1.594" x2="23.994" y1="16.979" y2="6.534" gradientTransform="matrix(1 0 0 -1 0 24)" gradientUnits="userSpaceOnUse"><stop offset="0" stop-color="#fff" stop-opacity=".2"></stop><stop offset="1" stop-color="#fff" stop-opacity="0"></stop></linearGradient><path fill="url(#b)" d="M24 11.5c0-1.607-.874-3.176-2.007-3.966.001-.012.007-.022.007-.034C22 3.314 17.861 1 15 1c-1.576 0-2.581.301-3 .459C11.581 1.301 10.576 1 9 1 6.139 1 2 3.314 2 7.5c0 .012.006.022.007.034C.874 8.324 0 9.893 0 11.5c0 1.169.312 2.016.62 2.586C.28 14.614 0 15.378 0 16.5c0 2.286 1.556 3.279 2.379 3.485a.5.5 0 0 0 .481-.138c.73 1.144 1.566 1.652 2.641 1.652.51 0 1.048-.137 1.577-.386C8.11 22.145 9.653 23 12 23s3.89-.855 4.923-1.886c.529.25 1.068.386 1.577.386 1.074 0 1.911-.509 2.641-1.652a.507.507 0 0 0 .481.138c.822-.207 2.378-1.2 2.378-3.486 0-1.122-.28-1.886-.62-2.414.308-.57.62-1.417.62-2.586z"></path></svg>